<svg width="64" height="108" viewBox="0 0 64 108" fill="none" xmlns="http://www.w3.org/2000/svg">
<path d="M32 99.428C32 99.4462 32.0365 99.4828 32.0365 99.4828C32.0365 99.4828 64 50.3171 64 34.1601C64 10.3814 47.7993 0.0365544 32 0C16.2007 0.0365544 0 10.3814 0 34.1601C0 50.3171 31.9818 99.4828 31.9818 99.4828L32 99.428Z" fill="url(#paint0_linear_2_6)"/>
<path d="M32 2.00001C39.4811 2.01832 46.9699 4.47731 52.568 9.64618C58.1328 14.7843 62 22.7566 62 34.1601C62 37.7354 60.1751 43.4882 57.172 50.3845C54.2129 57.18 50.2528 64.776 46.272 71.9053C42.2948 79.0281 38.3151 85.6528 35.3282 90.4988C33.9924 92.666 32.8561 94.476 32.0087 95.8139C31.1607 94.476 30.0236 92.6658 28.6869 90.4984C25.6983 85.6524 21.7163 79.0277 17.7369 71.9049C13.7538 64.7756 9.79152 57.1796 6.83067 50.3841C3.82586 43.4878 2 37.7351 2 34.1601C2 22.7566 5.8672 14.7843 11.432 9.64618C17.0301 4.47731 24.5189 2.01832 32 2.00001Z" stroke="white" stroke-width="4"/>
<path d="M28.4623 28.3216C28.4328 28.1146 28.4032 27.8706 28.3736 27.5897C28.344 27.294 28.3293 27.0056 28.3293 26.7247C28.3293 26.148 28.418 25.6083 28.5954 25.1056C28.7876 24.5881 29.039 24.1445 29.3495 23.7748C29.6748 23.3903 30.0519 23.0872 30.4807 22.8654C30.9095 22.6436 31.3753 22.5327 31.878 22.5327C32.3808 22.5327 32.8539 22.6436 33.2975 22.8654C33.7411 23.0724 34.1256 23.3682 34.4509 23.7526C34.7909 24.1223 35.0497 24.5585 35.2271 25.0612C35.4194 25.564 35.5155 26.1037 35.5155 26.6803C35.5155 26.9761 35.5007 27.2718 35.4711 27.5675C35.4563 27.8485 35.4342 28.122 35.4046 28.3882L33.1644 45.5553H30.6138L28.4623 28.3216ZM28.2627 53.2738C28.2627 52.7563 28.3588 52.2757 28.5511 51.8321C28.7433 51.3738 29.0094 50.9745 29.3495 50.6344C29.6896 50.2943 30.0815 50.0282 30.525 49.836C30.9834 49.6289 31.4714 49.5254 31.9889 49.5254C32.5064 49.5254 32.987 49.6289 33.4306 49.836C33.889 50.0282 34.2882 50.2943 34.6283 50.6344C34.9684 50.9745 35.2345 51.3738 35.4268 51.8321C35.6338 52.2757 35.7373 52.7563 35.7373 53.2738C35.7373 53.7913 35.6338 54.2793 35.4268 54.7377C35.2345 55.1813 34.9684 55.5731 34.6283 55.9132C34.2882 56.2533 33.889 56.5194 33.4306 56.7117C32.9722 56.9039 32.4917 57 31.9889 57C31.4714 57 30.9834 56.9039 30.525 56.7117C30.0815 56.5194 29.6896 56.2533 29.3495 55.9132C29.0094 55.5731 28.7433 55.1813 28.5511 54.7377C28.3588 54.2793 28.2627 53.7913 28.2627 53.2738Z" fill="white"/>
<defs>
<linearGradient id="paint0_linear_2_6" x1="14.5935" y1="14.1331" x2="46.5935" y2="83.4224" gradientUnits="userSpaceOnUse">
<stop stop-color="#7500D1"/>
<stop offset="1" stop-color="#9740DC"/>
</linearGradient>
</defs>
</svg>
