<svg width="64" height="108" viewBox="0 0 64 108" fill="none" xmlns="http://www.w3.org/2000/svg">
<path d="M32 99.428C32 99.4462 32.0365 99.4828 32.0365 99.4828C32.0365 99.4828 64 50.3171 64 34.1601C64 10.3814 47.7993 0.0365544 32 0C16.2007 0.0365544 0 10.3814 0 34.1601C0 50.3171 31.9818 99.4828 31.9818 99.4828L32 99.428Z" fill="url(#paint0_linear_2_52)"/>
<path d="M32 2.00001C39.4811 2.01832 46.9699 4.47731 52.568 9.64618C58.1328 14.7843 62 22.7566 62 34.1601C62 37.7354 60.1751 43.4882 57.172 50.3845C54.2129 57.18 50.2528 64.776 46.272 71.9053C42.2948 79.0281 38.3151 85.6528 35.3282 90.4988C33.9924 92.666 32.8561 94.476 32.0087 95.8139C31.1607 94.476 30.0236 92.6658 28.6869 90.4984C25.6983 85.6524 21.7163 79.0277 17.7369 71.9049C13.7538 64.7756 9.79152 57.1796 6.83067 50.3841C3.82586 43.4878 2 37.7351 2 34.1601C2 22.7566 5.8672 14.7843 11.432 9.64618C17.0301 4.47731 24.5189 2.01832 32 2.00001Z" stroke="black" stroke-opacity="0.5" stroke-width="4"/>
<circle cx="43.9715" cy="62.6942" r="17.9368" fill="#111"/>
<circle cx="43.9715" cy="62.6942" r="12.9528" fill="white"/>
<path d="M36.5379 61.1718H42.4746V55.0821H45.4854V61.1718H51.405V64.1656H45.4854V70.3064H42.4746V64.1656H36.5379V61.1718Z" fill="#111"/>
<defs>
<linearGradient id="paint0_linear_2_52" x1="14.5935" y1="14.1331" x2="46.5935" y2="83.4224" gradientUnits="userSpaceOnUse">
<stop stop-color="#eee"/>
<stop offset="1" stop-color="#888"/>
</linearGradient>
</defs>
</svg>
