<?xml version="1.0" encoding="UTF-8" standalone="no"?><!DOCTYPE svg PUBLIC "-//W3C//DTD SVG 1.1//EN" "http://www.w3.org/Graphics/SVG/1.1/DTD/svg11.dtd"><svg width="100%" height="100%" viewBox="0 0 173 173" version="1.1" xmlns="http://www.w3.org/2000/svg" xmlns:xlink="http://www.w3.org/1999/xlink" xml:space="preserve" xmlns:serif="http://www.serif.com/" style="fill-rule:evenodd;clip-rule:evenodd;stroke-linejoin:round;stroke-miterlimit:2;"><g id="g1545"><g id="g1820"><path id="path1477" d="M63.72,43.62c-0.26,-1.03 -4.4,-0.46 -5.29,-0.68c-2.88,-0.71 -4.87,-3.12 -7.71,-3.92c0.3,-0.8 0.86,-1.8 1.55,-2.32c0.94,-0.72 2.17,-1.04 3.31,-1.12c2.26,-0.15 4.88,2.03 5.24,4.62c0.33,-1.25 0.12,-3.2 -1.06,-4.55c-0.91,-1.05 -2.24,-1.54 -2.16,-1.55c4.89,-0.29 5.09,5.4 6.12,9.52Z" style="fill:#9b9c9e;"/><path id="path1479" d="M36.1,37.95c-0.32,0.48 -1.1,0.47 -1.65,0.99c-0.35,0.34 -0.88,0.94 -1.65,0.99c-1.07,0.07 -2.06,-0.5 -2.74,-1.32l-0,-0.77c0.08,-0.3 -0.52,0.08 -0.44,-0.22c1.02,-0.45 2.04,-1.52 3.18,-1.32c0.82,0.15 2.03,1.7 3.3,1.65Z" style="fill:#9b9c9e;"/><path id="path1481" d="M28.3,38.07c-0,2.09 1.47,3.28 1.53,4.94c-0.71,-0.17 -0.87,-0.88 -1.32,-1.32c-0.72,-0.11 -1.16,-0.69 -1.98,-0.88c-2.01,-0.46 -4.47,-0.4 -6.37,-0.44c0.55,-3.15 5.31,-1.09 7.69,-1.65c0.15,-0.22 0.28,-0.46 0.45,-0.65Z" style="fill:#9b9c9e;"/><path id="path1483" d="M137.24,64.77c-0.02,-0.01 -0.05,-0.02 -0.07,-0.03c-3.68,-1.83 -15.93,-5.14 -20.48,-4.01c8.42,-2.68 24.94,-3.23 31.94,0.12c7.09,3.4 13.22,6.76 15.61,12.26c0.61,1.4 1.18,2.91 1.32,4.94c0.51,7.57 -2.63,15.45 -7.36,21.3c-3.95,4.89 -9.62,7.27 -15.6,8.67c-6.66,1.56 -12.9,2.8 -19.31,5.28c-6.94,2.68 -12.66,7.04 -18.45,10.87c-3.85,2.55 -7.52,5.53 -11.42,8.13c-1.95,1.3 -4.12,2.24 -6.69,3.07c-9.66,3.11 -18.82,1.56 -28.72,0.92c-16.13,-1.04 -32.33,-1.4 -48.17,2.4c19.68,-12.07 44.54,-4.97 66.23,-6.17c11.53,-0.63 20.14,-10.39 28.32,-17.2c0.71,-0.59 3.27,-2.31 3.29,-3.4c0.06,-3.13 -6.29,-1.81 -8.14,-1.96c0.94,-4.31 9.83,-8.29 13.82,-8.88c6.56,-0.98 11.02,0.7 16.64,-3.44c5.35,-3.94 9.42,-8.35 13.83,-13.3c1.95,-2.19 3.68,-4.04 4.29,-6.94c1.28,-6.08 -6.41,-10.4 -10.88,-12.63Z" style="fill:#9b9c9e;"/><path id="path1485" d="M118.21,49.63c0.17,0.93 -0.18,1.86 -1.2,2.77c-2.18,1.96 -11.84,3.13 -14.99,2.78c6.62,-0.68 7.99,-6.82 2.04,-11.16c-5.03,-3.66 -15.64,-5.7 -21.55,-6.86c-1.58,-0.31 -4.07,-1.02 -5.65,-0.5c-2.67,0.89 -1.51,0.91 -1.86,3.59c-2.52,0.56 -6.97,-4.59 -8.94,-5.94c-3.55,-2.43 -7.35,-4.45 -11.42,-5.83c-8.74,-2.98 -18.26,-3.55 -26.77,0.48c-2.84,1.34 -5.78,3.77 -9.34,4.28c-0.97,0.14 -1.97,-0.06 -2.86,-0c-2.08,0.15 -5.06,0.19 -6.44,2c-0.73,0.96 -0.82,2.77 -0.72,3.92c0.12,1.36 0.69,2.81 2.1,3.36c0.09,-1.33 0.58,-2.41 0.61,-3.85c0.04,-1.65 -0.36,-2.55 1.36,-2.91l3.89,1.93c-1.5,2.05 -4.32,1.54 -3.98,5.01c0.58,5.88 8.8,6.85 13.14,6.84c1.17,-0 1.94,0.09 2.96,-0.52c0.24,-0.14 2.37,-1.78 2.56,-1.5c0.42,0.6 0.97,1.07 1.43,1.65c4.79,0.17 8.15,-1.47 9.88,-4.84c0.62,2.06 -0.87,4.24 -1.76,5.83c0.12,-0.22 13.37,4.48 18.59,5.46c5.41,1.01 21.78,1.54 28.18,1.54c-6.86,1.91 -21.58,1.76 -27.96,0.66c-7.01,-1.21 -15.66,-3.35 -22.77,-3.38c-6.2,-0.02 -12.31,-0.38 -17.24,-2.09c-1.3,-0.45 -3,-1.54 -4.28,-2.42c-2.07,-1.43 -4.86,-2.54 -5.49,-5.5c-0.23,-0.1 -0.7,-0.04 -1.1,-0.22c-1.47,-0.93 -2.5,-6.68 -1.32,-9.22c1.23,-2.65 6.33,-3.23 8.78,-3.51c1.69,-0.2 3.62,-0.63 5.05,-1.32c8.55,-4.13 15.02,-6.27 24.88,-5.8c13.48,0.64 21.66,8.55 33.3,10.23c4.18,0.61 37.54,7.84 38.89,15.04Z" style="fill:#9b9c9e;"/><path id="path1487" d="M20.91,129.66c7.36,-5.23 12.43,-6.65 20.14,-8.53c8.98,-2.18 16.75,-1.38 25.89,-2.57c4.07,-0.53 7.6,-0.65 10.21,-2.42c6.67,-4.52 2.05,-14.72 -1.46,-20.68c-6.67,-11.34 17.1,-27.04 20.67,-28.18c-11.97,8.15 -13.88,14.77 -13.88,20.58c-0,6.91 3.42,10.65 4.76,16.75c0.17,0.76 0.5,1.76 -0,2.52c-0.13,0.16 -0.38,-0.75 -0.55,-0.99c-0.49,-0.66 -1.54,-1.09 -1.87,-1.76c0.28,3.54 0.75,8 -1.38,11.1c-2.34,3.41 -7.57,4.55 -11.42,5.06c-3.36,0.45 -6.97,0.97 -10.85,0.97c-11.72,-0 -13.66,0.48 -22.56,2.03c0.02,0.02 -6.76,0.99 -17.7,6.12Z" style="fill:#9b9c9e;"/><g id="g1503"><path id="path1489" d="M77.71,76.63c0.28,-0 0.21,0.12 0.11,0.22c-2.45,2.44 -5,4.59 -6.58,6.7c-6.12,8.18 2.75,13.19 4.31,20.58c0.66,3.14 -1.42,3.95 -3.21,6.01c7.48,-8.61 -16.81,-12.08 -11.57,-22.27c2.96,-5.74 11.52,-8.49 16.94,-11.24Z" style="fill:#5694bd;fill-opacity:0.5;"/><path id="path1491" d="M115.01,123.87c-4.62,6.6 -7.03,11.63 -11.25,15.39c-16.67,14.85 -35.81,7.7 -55.33,3.76c-9.55,-1.92 -18.57,-1.41 -28.34,-1.3c27.88,-8.26 58.88,11.18 82.98,-7.67c4.07,-3.18 7.31,-6.22 11.94,-10.18Z" style="fill:#5694bd;fill-opacity:0.5;"/><path id="path1493" d="M75.38,61.12c6.97,-0.5 13.23,-1.43 20.45,-0.92c-2.16,1 -6.77,2.19 -9.22,2.9c-3.51,1 -7.6,3.3 -15.19,3.63c-5.49,0.24 -9.63,-0.9 -14.86,-2.64c-5.95,-1.98 -11.89,-3.96 -19.15,-4.62c-4.26,-0.39 -15.3,0.55 -24.11,-2.31c-14.14,-4.61 -17.37,-13.67 -7.93,-16.86c-2.35,5.31 5.29,11.34 11.56,13.89c7.38,3 21.91,1.7 29.72,2.64c6.34,0.77 12.88,3.3 19.82,3.97c3.44,0.32 5.71,0.55 8.91,0.32Z" style="fill:#5694bd;fill-opacity:0.5;"/><path id="path1495" d="M147.14,121.16c-2.58,1.39 -5.26,2.55 -8,3.46c-2.2,0.73 -10.23,3.45 -11.26,1.24c-0.78,-1.66 1.85,-4.46 2.69,-5.63c-1.63,-1.59 -4.16,-0.97 -6.12,-0.56c-0.62,0.13 -6.21,1.24 -6.32,1.41c1.91,-2.92 5.07,-3.9 8.67,-5.27c3.54,-1.33 7.77,-2.24 11.86,-3.07c4.79,-0.98 9.75,-1.79 14.2,-3.91c5.13,-2.45 8.28,-6.43 11.05,-11.24c3.64,-6.3 9.33,-21.57 1.36,-26.84c14.4,9.6 4.51,30.97 -4.85,40.28c-3.81,3.8 -8.55,7.58 -13.28,10.13Z" style="fill:#5694bd;fill-opacity:0.5;"/><path id="path1497" d="M145.06,125.19c-5.46,2.84 -14.21,1.04 -18.78,5.02c2.32,6.34 21.96,0.7 19.71,-4.97c-1.9,-0.06 -3.66,0.95 -5.56,1.27" style="fill:#5694bd;fill-opacity:0.5;"/><path id="path1499" d="M131.78,136.15c-4.75,2.13 2.94,3.66 5.11,3.09c0.46,-0.12 5.59,-2.94 3.83,-3.76c-1.66,-0.76 -7.62,0.08 -8.94,0.67Z" style="fill:#5694bd;fill-opacity:0.5;"/><path id="path1501" d="M44.58,64.72c5.55,0.68 12.31,1.84 16.32,6.12c6.21,6.63 -4.21,10.48 -5.62,15.74c-1.31,4.89 0.54,10.18 5.32,12.74c-3.55,-1.91 -9.34,-6.58 -10.81,-10.45c-1.96,-5.13 3.56,-9.31 2.79,-14.37c-0.96,-6.38 -9.64,-8.36 -14.51,-10.74c1.14,0.16 4.53,0.72 6.51,0.96Z" style="fill:#5694bd;fill-opacity:0.5;"/></g><path id="path1505" d="M132.54,49.25c4.58,3.51 -8.12,4.66 -10.72,4.62c10.16,-1.77 -1.42,-9.01 -6.14,-10.16c3.33,1.22 10.78,0.89 16.86,5.54Z" style="fill:#5694bd;fill-opacity:0.5;"/></g></g></svg>