<?xml version="1.0" encoding="UTF-8" standalone="no"?>
<!-- Created with Inkscape (http://www.inkscape.org/) -->

<svg
   width="79.999924"
   height="98.178009"
   viewBox="0 0 21.166647 25.976265"
   version="1.1"
   id="svg5"
   xml:space="preserve"
   xmlns="http://www.w3.org/2000/svg"
   xmlns:svg="http://www.w3.org/2000/svg"><defs
     id="defs2" /><g
     id="layer2"
     style="display:inline"><path
       style="display:inline;opacity:1;fill:#56bd6b;fill-opacity:1;stroke:#3f3f3f;stroke-width:1.26371896;stroke-miterlimit:4;stroke-dasharray:none;stroke-opacity:1;paint-order:stroke fill markers"
       d="M 156.89082,695.73347 C 118.2161,656.73163 93.550525,621.52905 87.732137,597.03051 c -2.958089,-12.45513 -0.395177,-29.87096 6.466626,-43.94284 4.502958,-9.23447 8.138827,-14.30674 15.604677,-21.76952 12.32416,-12.31911 26.0915,-19.60531 43.24583,-22.88732 7.31158,-1.39886 21.69168,-1.39886 29.00325,0 12.44263,2.38055 23.13934,6.88085 32.73927,13.84414 3.64797,2.64604 7.13755,5.64775 10.50439,9.02394 7.4595,7.48026 11.68297,13.39289 15.91892,22.2857 6.58855,13.83174 9.07485,31.31321 6.17408,43.41052 -4.96397,20.70161 -22.57644,48.03698 -52.20827,81.02962 -5.58682,6.22046 -27.08759,28.16661 -27.59501,28.16661 -0.17869,0 -4.99148,-4.70605 -10.69508,-10.45789 z m 21.72503,-19.78708 c 32.03534,-32.65754 51.39108,-61.02165 55.50874,-81.34314 1.88185,-9.28732 -0.37106,-23.58243 -5.3846,-34.16608 -3.47216,-7.32983 -6.81538,-12.1304 -12.64591,-18.15842 -13.1005,-13.54426 -29.36569,-20.35874 -48.5934,-20.35874 -19.18147,0 -35.52443,6.84707 -48.59341,20.35874 -8.47976,8.76699 -13.73324,18.07539 -16.73451,29.65107 -1.42948,5.51341 -1.64831,7.32075 -1.71178,14.13784 -0.0622,6.68447 0.10575,8.43266 1.16004,12.07265 4.76176,16.44033 16.84913,35.43169 38.28454,60.15174 6.36754,7.34328 26.87697,28.57907 27.60153,28.57907 0.21569,0 5.21463,-4.91613 11.10876,-10.92473 z"
       id="path1652"
       transform="matrix(0.12894848,0,0,0.1289939,-11.016898,-65.314185)" /></g><g
     id="layer3"
     style="display:inline"><path
       d="m 129.28421,157.25053 c 0,9.66117 -17.80514,26.23945 -17.80514,26.23945 0,0 -17.805144,-16.57828 -17.805144,-26.23945 0,-9.66106 7.971624,-17.4929 17.805144,-17.4929 9.83356,0 17.80514,7.83184 17.80514,17.4929 z"
       stroke="currentColor"
       stroke-width="0.814186"
       id="path1205-5-5"
       style="display:inline;fill:#ffffff;fill-opacity:1;stroke:#3f3f3f;stroke-width:0.179121;stroke-dasharray:none;stroke-opacity:1"
       transform="matrix(0.48736433,0,0,0.48753599,-43.747598,-66.103625)" /></g><g
     id="layer4"><path
       id="path1205-5-5-2"
       style="display:inline;fill:#3f3f3f;fill-opacity:1;stroke-width:0.999998"
       d="M 17.406754,5.232824 2.6520514,7.0470492 C 2.1708839,8.1077806 1.9029232,9.2825536 1.9029232,10.518915 c 0,0.351604 0.049211,0.722539 0.138634,1.106944 1.4052241,-0.84047 3.5487645,-0.530861 4.7266649,7.509806 l 0.00196,0.171965 c 0.8623281,1.002228 1.6945561,1.890174 2.3620739,2.575469 L 9.7051857,19.823785 9.6855293,17.376661 C 10.958024,9.2908875 13.662911,4.2644552 15.331209,15.141596 v 0.557507 l 0.0015,0.613988 1.19906,0.31821 c 0.07849,-0.108705 0.154654,-0.218238 0.231394,-0.327542 -0.0015,-1.281139 -0.0087,-2.393561 -0.0087,-3.798147 0,0 0.722542,-6.4554858 2.090853,-4.2545426 l 0.220043,0.5373359 -4.87e-4,-0.1306171 C 18.776899,7.3860612 18.200766,6.2209643 17.406657,5.232824 Z" /></g><g
     id="layer5"><g
       id="g1969"
       transform="matrix(0.58260347,0,0,0.58261804,-3.2997916,8.7077008)"
       style="stroke-width:1.71642"><g
         aria-label="⊕"
         id="text1579"
         style="font-size:25.4px;line-height:125%;-inkscape-font-specification:sans-serif;letter-spacing:0px;word-spacing:0px;fill:#3f3f3f;stroke-width:0.454133px"><path
           d="m 29.446768,10.556011 c 0.983919,-0.413412 2.046387,-0.6201175 3.187403,-0.6201175 1.141015,0 2.203483,0.2067055 3.187402,0.6201175 0.983919,0.413411 1.881022,1.02526 2.691309,1.835547 0.818555,0.818555 1.430403,1.719791 1.835546,2.70371 0.405143,0.975651 0.607715,2.042253 0.607715,3.199805 0,1.132747 -0.202572,2.191081 -0.607715,3.175 -0.405143,0.975651 -1.016991,1.872754 -1.835546,2.691309 -0.810287,0.810286 -1.70739,1.422135 -2.691309,1.835546 -0.983919,0.413412 -2.046387,0.620118 -3.187402,0.620118 -1.141016,0 -2.203484,-0.206706 -3.187403,-0.620118 -0.983919,-0.413411 -1.881021,-1.02526 -2.691308,-1.835546 -0.818555,-0.818555 -1.430404,-1.715658 -1.835547,-2.691309 -0.405143,-0.983919 -0.607715,-2.042253 -0.607715,-3.175 0,-1.157552 0.202572,-2.224154 0.607715,-3.199805 0.405143,-0.983919 1.016992,-1.885155 1.835547,-2.70371 0.810287,-0.810287 1.707389,-1.422136 2.691308,-1.835547 z"
           id="path1581"
           style="display:inline;stroke:#ffffff;stroke-width:0.90826812;stroke-opacity:1;stroke-dasharray:none;fill:#56bd6b;fill-opacity:1" /><path
           style="font-size:25.4px;line-height:125%;-inkscape-font-specification:sans-serif;letter-spacing:0px;word-spacing:0px;display:inline;fill:#ffffff;fill-opacity:1;stroke:none;stroke-width:1.05731;stroke-dasharray:none;stroke-opacity:1;paint-order:stroke fill markers"
           d="m 119.37668,81.387042 v -8.382054 h -8.31446 -8.31446 V 69.08435 65.163712 h 8.31446 8.31446 v -8.314457 -8.314457 h 3.92063 3.92064 v 8.314457 8.314457 h 8.38206 8.38205 v 3.919606 3.919607 l -8.34826,0.03483 -8.34825,0.03483 -0.0348,8.348256 -0.0348,8.348256 h -3.91961 -3.9196 z"
           id="path1886"
           transform="scale(0.26458334)" /></g></g></g></svg>
